<?xml version="1.0" encoding="UTF-8"?>
<svg id="Ebene_1" xmlns="http://www.w3.org/2000/svg" version="1.1" viewBox="0 0 978.4 321.3">
  <!-- Generator: Adobe Illustrator 30.5.0, SVG Export Plug-In . SVG Version: 2.1.4 Build 167)  -->
  <defs>
    <style>
      .st0 {
        fill: #fff;
      }
    </style>
  </defs>
  <path class="st0" d="M257.8,294.9l-135.2,13.7-55.7,5.8L.9,321.3l-.9-8.2,41.2-5.5,190.9-24.9,59.2-7.7,165.3-21.8,138.6-18.4,64.9-8.6,134.6-17.5,85.7-11.3,94.4-12.2c1.4,9.7,2.4,19.2,3.2,29l.4,5.3-.2,1.1c0,.3-.7.3-1.3.3l-9.5.8-54.4,5.8-43.8,4.4-127.1,13.1-61.8,6.4-88.4,9-62.2,6.4-139.9,14.3-91.3,9.3-40.8,4.2Z"/>
  <path class="st0" d="M475.2,121.7c-.5-3.9-.7-8-3.9-10.3s-8.5-.4-10.8,3-3.4,8.8-3.9,14.1l1.2,62.9-29.3,4-1-59.3-.6-46.9,26.5-4.1,2.7,13c4-5.8,7-10.8,12.9-14.1s14.7-5,21.8-2.8,9.3,6.7,12.6,12.1l3.7-5.7c5.8-8.9,15.6-14.1,26.4-13.6s15.8,6.6,18.1,15.3c1.5,5.6,1.7,11.1,2,17l1.1,71.8-29.7,4.1-.5-32-.3-24.4-.6-14.3c-.1-3-1.9-6.8-4.9-7.6-5.4-1.5-10.4,2.6-11.8,7.9s-1.6,11.8-1.5,17.9l.4,23,.6,31.7-30,4.3-1.1-67.2Z"/>
  <path class="st0" d="M213.9,174.2l.8,50.4-35.5,4.8-1.5-107.6-.5-44.8,41.3-5.9c11.1-1.6,21.6-.6,31.9,3.8,9.2,4.8,16.1,12.5,19.6,22.4,5.3,15.2,5.1,32-.8,46.9-6.7,16.9-20.5,25.2-38,27.6l-17.2,2.3ZM230.3,102.8c-4-3.8-12.1-3.4-17.6-2.1l.7,45.4c3.6-.3,7.4-.8,11.1-1.7,15.7-3.8,15.4-32.4,5.8-41.6Z"/>
  <path class="st0" d="M588.3,170.3c-13.3-6.9-18.7-25-19.5-39-.5-9.2-.6-18,.3-27.1.9-9.3,3.7-18,8.7-25.9,5.4-8.5,13.6-13.5,23.3-15.8,10.1-2.4,20.8-2.3,29.9,3.4,7.6,4.8,12.6,12.8,15.1,21.5,5.2,18.4,6,43.9-1,61.8-4.9,12.7-15.6,21.5-29,24.1s-18.9,1.5-27.8-3ZM613.7,145.5c2.8-2.9,3.8-7,4.5-11,2.1-10.8,1.9-21.8.3-32.7-.7-4.9-3.7-14.4-10.6-12s-8.8,18.1-8.8,25.6-.4,24.9,5.4,30.7c2.4,2.4,6.7,1.9,9.2-.7Z"/>
  <path class="st0" d="M300.5,211.3c-11.6-4-14-18.9-14.1-29.6l-.5-50.9-.2-22.4,28.7-4,1.1,65.3c0,4.3,0,13.5,5,15.5s5.1.6,6.9-.7c8.1-5.8,7.8-16.3,7.4-25.4l-.8-57.2,29-4,.7,46.2.6,29.5.3,21.6.3,8.6-25.7,3.6c-1.4-3.4-2.5-6.8-3.5-10.4-2.6,3.7-5.1,7.4-8.8,10.1-7.5,5.5-17.6,7.2-26.5,4.1Z"/>
  <path class="st0" d="M665.1,163l-.5-24-.5-30.2-.6-41.7-.5-38.9V10.2c-.1,0,29.3-3.9,29.3-3.9l.4,31.4.5,44.7.5,32,.6,29.9c0,4.9,2.9,9.1,4.4,13.8l-33.6,4.7Z"/>
  <path class="st0" d="M409.5,184.9c.9,4.4,2.3,7.7,4.3,12.2l-33.6,4.8-.9-51.9-1.1-100.6,29.4-4v16.9s1.4,87,1.4,87l.5,35.5Z"/>
  <path class="st0" d="M741.1,143.7l3.2,8.1-33.2,4.8-1.4-72.7-.2-24.5-.6-55.6,29.4-3.7.6,75.1.4,27,.3,34.2c0,2.5.7,5,1.5,7.4Z"/>
</svg>