<?xml version="1.0" encoding="UTF-8"?>
<svg id="Ebene_1" xmlns="http://www.w3.org/2000/svg" version="1.1" viewBox="0 0 978.4 667.2">
  <!-- Generator: Adobe Illustrator 30.5.0, SVG Export Plug-In . SVG Version: 2.1.4 Build 167)  -->
  <defs>
    <style>
      .st0 {
        fill: #fff;
      }
    </style>
  </defs>
  <path class="st0" d="M257.7,376.7l-135.2,13.7-55.7,5.8L.9,403.1l-.9-8.2,41.2-5.5,190.9-24.9,59.2-7.7,165.3-21.8,138.6-18.4,64.9-8.6,134.6-17.5,85.7-11.3,94.4-12.2c1.4,9.7,2.4,19.2,3.2,29l.4,5.3-.2,1.1c0,.3-.7.3-1.3.3l-9.5.8-54.4,5.8-43.8,4.4-127.1,13.1-61.8,6.4-88.4,9-62.2,6.4-139.9,14.3-91.3,9.3-40.8,4.2v.3Z"/>
  <path class="st0" d="M475,203.6c-.5-3.9-.7-8-3.9-10.3s-8.5-.4-10.8,3-3.4,8.8-3.9,14.1l1.2,62.9-29.3,4-1-59.3-.6-46.9,26.5-4.1,2.7,13c4-5.8,7-10.8,12.9-14.1s14.7-5,21.8-2.8,9.3,6.7,12.6,12.1l3.7-5.7c5.8-8.9,15.6-14.1,26.4-13.6s15.8,6.6,18.1,15.3c1.5,5.6,1.7,11.1,2,17l1.1,71.8-29.7,4.1-.5-32-.3-24.4-.6-14.3c0-3-1.9-6.8-4.9-7.6-5.4-1.5-10.4,2.6-11.8,7.9s-1.6,11.8-1.5,17.9l.4,23,.6,31.7-30,4.3-1.1-67.2v.2Z"/>
  <path class="st0" d="M213.8,256l.8,50.4-35.5,4.8-1.5-107.6-.5-44.8,41.3-5.9c11.1-1.6,21.6-.6,31.9,3.8,9.2,4.8,16.1,12.5,19.6,22.4,5.3,15.2,5.1,32-.8,46.9-6.7,16.9-20.5,25.2-38,27.6l-17.2,2.3h-.1ZM230.1,184.6c-4-3.8-12.1-3.4-17.6-2.1l.7,45.4c3.6-.3,7.4-.8,11.1-1.7,15.7-3.8,15.4-32.4,5.8-41.6Z"/>
  <path class="st0" d="M588.2,252.2c-13.3-6.9-18.7-25-19.5-39-.5-9.2-.6-18,.3-27.1.9-9.3,3.7-18,8.7-25.9,5.4-8.5,13.6-13.5,23.3-15.8,10.1-2.4,20.8-2.3,29.9,3.4,7.6,4.8,12.6,12.8,15.1,21.5,5.2,18.4,6,43.9-1,61.8-4.9,12.7-15.6,21.5-29,24.1s-18.9,1.5-27.8-3ZM613.6,227.3c2.8-2.9,3.8-7,4.5-11,2.1-10.8,1.9-21.8.3-32.7-.7-4.9-3.7-14.4-10.6-12s-8.8,18.1-8.8,25.6-.4,24.9,5.4,30.7c2.4,2.4,6.7,1.9,9.2-.7h0Z"/>
  <path class="st0" d="M300.3,293.1c-11.6-4-14-18.9-14.1-29.6l-.5-50.9-.2-22.4,28.7-4,1.1,65.3c0,4.3,0,13.5,5,15.5s5.1.6,6.9-.7c8.1-5.8,7.8-16.3,7.4-25.4l-.8-57.2,29-4,.7,46.2.6,29.5.3,21.6.3,8.6-25.7,3.6c-1.4-3.4-2.5-6.8-3.5-10.4-2.6,3.7-5.1,7.4-8.8,10.1-7.5,5.5-17.6,7.2-26.5,4.1h0Z"/>
  <path class="st0" d="M664.9,244.9l-.5-24-.5-30.2-.6-41.7-.5-38.9v-17.9c0,0,29.3-3.9,29.3-3.9l.4,31.4.5,44.7.5,32,.6,29.9c0,4.9,2.9,9.1,4.4,13.8l-33.6,4.7h0Z"/>
  <path class="st0" d="M409.4,266.7c.9,4.4,2.3,7.7,4.3,12.2l-33.6,4.8-.9-51.9-1.1-100.6,29.4-4v16.9l1.4,87,.5,35.5h0Z"/>
  <path class="st0" d="M741,225.5l3.2,8.1-33.2,4.8-1.4-72.7-.2-24.5-.6-55.6,29.4-3.7.6,75.1.4,27,.3,34.2c0,2.5.7,5,1.5,7.4h0Z"/>
  <path class="st0" d="M460.8,461.1c.2,1.9.5,3.8,1.8,5v1c0,1.3-.3,3.1.9,4l-.3,10-1.4,7.9c-.5,2.8-1,5.1,1.5,6.7.5-5,1.2-9.7,3.3-13.7,5.1-9.5,13.4-17.2,24.2-21.2,11.3,24.2,5.7,44-16.9,57.1l10.4,20.7,20.7-35.9c-4.5-2.1-6-5.4-6.7-8.7s2.3-7.7,4.5-10.5c-2.2-3.7-4.1-7-3.5-11.8s5.2-5.4,7.2-8.5.3-8.2,4.3-11.2,6.9-2.4,11-2.9c1.4-2.6,3.1-7,5.5-8.2,3.3-1.6,6.7-2.5,10-.7l21.7,12.4c3.8,2.1,5.3,5.6,5.8,9,.6,4.1-2.3,7.4-4.5,10.1,2.7,3.7,4.3,7.1,3.3,11.4s-5,6.2-7.6,8.2c-.2,4.7-.5,8.6-4.3,11.6s-7,2.7-10.6,1.8c-.4,3.7-2.8,7.7-5.9,9.3s-7.6,1.1-11.8-.3l-27.2,48.1,9.8,19.5c1,1.9-.6,3.7-2.1,4.1-2.3.5-3-.8-4-2.8l-7.1-14.6-6.8,11.7c-3.3,5.6-9.6,8-15.1,4.8-4.8-2.7-7.4-9.1-4.3-14.5l14.4-25.6-12.4-24.1c-24.6,10.3-43.7,2.3-55.6-20.7,9-6.2,19.1-7.8,28.9-7.3h1l4.7,1.1c3.1.6,6,2.1,8.5,4l.7-.6c-.2-1.3-1-2.2-2.4-3l-6.4-3.2c-17.6-8.9-23.8-31.7-15.2-52.1,12.4,3.4,22.5,11.7,28,22.5h0ZM557.2,458.3l-22.1-12.6c-2.3-1.3-5.4.2-6.3,1.9s-1.3,5.4.8,6.6l23.2,13.1c2.6,1.4,5.9-.7,6.5-2.9s.4-4.6-2.1-6.1ZM456.4,488.3c2.5-8.9,2-17-.8-24.8-4.3-7.8-11-13.8-19.2-17.4-2.6,9.5-2.1,18.6,1.8,26.9,4.2,6.8,10.1,11.8,18.3,15.3h-.1ZM555.4,475.6l-35.2-20c-2.7-1.6-5.8.4-6.9,2.8s-.4,4.8,2,6.1l35.4,20.3c2.8,1.6,6.2.2,7.4-2.2s.2-5.4-2.8-7.1h0ZM488,468.4c-17.9,9.8-22.3,24-16.2,44,17.4-9.2,23.7-24.6,16.2-44ZM547.2,489.7l-34.5-19.7c-2.9-1.6-6-.3-7.3,2.3s-.3,5.3,2.3,6.8l35.6,20.1c2.7,1.5,5.9-.3,7-2.6s0-5.1-3.1-6.8h0ZM533,500.1l-20.9-11.8c-2.8-1.6-5.6-.8-7.3,1.9s-1,5.1,1.8,6.7l21.9,12.5c2.7,1.5,6-.5,6.8-2.6s.4-5.1-2.3-6.6h0ZM435.2,498.5c-1.3-.6-3.3,0-4.7,0l-1.3.7c-1.5.8-4.2.9-5.7,1.8-.3,0-1.6.2-1.8.6-.5,2.3,1.5,3.7,2.6,4.8l3.7,3.9c1.7,1.8,3.2,2.9,5.1,4.1,7.9,5.2,17.7,5.9,26.7,2.8l.8-.2,1.9-.8c1-.4,2.2,0,3.4-1-1.6-2.9-3.5-4.5-5.3-6.3l-.8-.8-1.1-1.1c-4.9-5.3-11.5-8.5-18.7-8.9-1.4,0-3.6-1.8-5,.4h.2ZM457.5,497.3l-.8.8c.7,1,1.8-.2.8-.8ZM493.8,555.4l25.2-44.7-9.2-5.4-22.1,39c2,4.1,3.2,8.2,6.1,11h0ZM490,562.2c-1.8-3.9-3.3-7.8-6.5-10.5l-12.1,21.2c-.6,3.1.4,5.7,2.8,6.8s5.5.5,7-2.1l8.9-15.4h-.1Z"/>
  <path class="st0" d="M509.4,665.4c-11.9,5-27.2-1.4-23.9-7.2s10.3,6.1,21.8.6c1.5-.7,1.8-2.6,1.6-3.9s-1.5-2.7-3.4-3.3l-12.7-3.8c-4.5-1.4-7.8-4.7-8.2-9s1.6-9.2,6.3-11.3c10.8-4.8,25.3-.2,23.4,5.2-2.3,6.7-10.1-3.8-20.8,1.3s-1.6,2.7-1.2,3.9,1.3,2.2,2.8,2.7l14,4.5c4.6,1.5,7.5,5.3,7.6,9.7s-2.4,8.6-7.2,10.6h-.1Z"/>
  <path class="st0" d="M459.3,655.8l-16.2-2.5-5.7,8c-.9,1.2-3.2,1-4.4.6s-2.4-2.7-1.4-4.4l20-31.8c.9-1.5,2.3-2.4,3.5-2.3,1.9,0,3.2,1.3,3.7,3.3l10.3,36.4c.5,1.6-1.6,3.1-2.6,3.4s-3.5.5-4.1-1.2l-3.2-9.4h0ZM457.5,648.3l-3.9-13.1-7,11.6,10.9,1.5Z"/>
  <path class="st0" d="M558.7,656.8c-10.8,8.5-27.6,4.2-26-1.7s2.6-3,4.8-2.2c9.6,3.6,18.2,0,18.1-4.1s-1.5-3.6-3.4-3.8l-15.4-2.1c-4.3-.6-7.5-3.9-8.3-7.1-1.2-4.7.2-8.9,4-11.8,10-7.5,25.7-4.4,24.1,1.1-.5,1.7-2.4,3.1-4.5,2.5-9-2.6-17.5.9-16.6,5.3s1.7,2.5,3.5,2.8l14.5,2c4.2.6,7.6,3.6,8.7,6.7,1.6,4.5.5,9.1-3.6,12.3h.1Z"/>
  <path class="st0" d="M354,611.9c-1.9,5-.6,10,2.4,13.1,8.1,8.3,17.1.7,18.9,5.4.6,1.5,0,4.1-2.3,5-10.6,3.9-23.6-2.2-26.6-13.7s3.2-22.3,13.5-26.1c11.3-4.1,23.7,3.1,26.6,14.3s-.9,4.6-2.8,5c-5.2,1.1-4.2-12.5-16.5-13.1-6.1-.3-10.8,3.8-13.2,10h0Z"/>
  <path class="st0" d="M616.9,628c13.3-1.5,10.1-13.8,15.7-13s3.3,2.5,2.7,5.2c-2.1,9-11.2,15.3-20.8,15.2s-14.2-5.4-17.2-10.9-3.9-15.5.7-21.8c5.5-7.5,14.5-11.2,23.2-8.3s3.3,2.7,3,4.4c-1.1,6.5-10.5-2.8-19.2,6.4s-3.9,9.5-1.4,14.9,7.5,8.6,13.2,8h.1Z"/>
  <path class="st0" d="M412.3,656.1l-19.6-6.3c-2.2-.7-3.5-3-2.7-5.3l10.7-31.6c.7-2,3.1-2.5,4.3-2.3,1.7.4,3.4,2.1,2.7,4.2l-9.4,28.9,15.8,5.3c2.2.7,2.7,2,2.8,3.8s-1.5,4.3-4.5,3.3h-.1Z"/>
  <path class="st0" d="M588.5,644.4c1.1,2.9-.3,5.1-2.1,5.8-2.9,1-4.5-.6-5.5-3.4l-11.2-30.9c-.8-2.1,1.1-4,2.5-4.5,2.2-.7,4.2.3,5.1,2.7l11.3,30.3h-.1Z"/>
  <path class="st0" d="M443.1,492.5h-1c.4-.4.7,0,1,0Z"/>
  <path class="st0" d="M433.2,514.5c-1.9-1.3-3.3-2.3-5.1-4.1,2.1.9,4.2,1.9,5.1,4.1Z"/>
  <path class="st0" d="M460.7,517.1l-.8.2c.2-.3.5-.4.8-.2Z"/>
  <path class="st0" d="M459.9,508.2c-.5-.2-.9-.6-1.1-1.1l1.1,1.1Z"/>
  <path class="st0" d="M429.1,499.2l1.3-.7-1.3.7Z"/>
  <g>
    <path class="st0" d="M329.9.6h7.7c2,0,3.7.2,5.1.6,1.4.4,2.7,1.1,3.9,2.1,3,2.6,4.5,6.5,4.5,11.8s-.2,3.3-.5,4.8-.8,2.7-1.4,3.9c-.6,1.2-1.4,2.2-2.4,3.1-.8.7-1.6,1.3-2.6,1.7s-1.9.7-3,.9-2.3.3-3.6.3h-7.7c-1.1,0-1.9-.2-2.4-.5s-.9-.8-1.1-1.4-.2-1.3-.2-2.3V4.2c0-1.3.3-2.2.9-2.8s1.5-.9,2.8-.9h0ZM332.2,5.2v19.7h6.8c.6,0,1.1-.2,1.7-.4s1.1-.5,1.5-.9c2-1.7,3-4.5,3-8.6s-.4-5-1.3-6.4-1.9-2.3-3.2-2.7c-1.3-.4-2.8-.6-4.6-.6h-3.9Z"/>
    <path class="st0" d="M361.6,26.5V3.7c0-1.2.3-2.1.8-2.7s1.2-.9,2.1-.9,1.6.3,2.1.9c.5.6.8,1.5.8,2.7v22.9c0,1.2-.3,2.1-.8,2.7s-1.3.9-2.1.9-1.5-.3-2.1-.9c-.5-.6-.8-1.5-.8-2.7h0Z"/>
    <path class="st0" d="M398.3,5.1h-13.2v7.1h12.2c.9,0,1.6.2,2,.6s.7.9.7,1.6-.2,1.2-.7,1.6c-.4.4-1.1.6-2,.6h-12.2v8.3h13.7c.9,0,1.6.2,2.1.6s.7,1,.7,1.7-.2,1.2-.7,1.7-1.2.6-2.1.6h-16c-1.3,0-2.2-.3-2.8-.9s-.8-1.5-.8-2.8V4.2c0-.8,0-1.5.4-2.1.3-.5.6-.9,1.2-1.2.5-.2,1.2-.4,2-.4h15.5c.9,0,1.6.2,2.1.6.5.4.7,1,.7,1.6s-.2,1.2-.7,1.7c-.5.4-1.2.6-2.1.6h0Z"/>
    <path class="st0" d="M437.9,18.3h-5.4v8.2c0,1.2-.3,2.1-.8,2.7s-1.3.9-2.1.9-1.6-.3-2.1-.9-.8-1.5-.8-2.6V4.2c0-1.3.3-2.2.9-2.8s1.5-.8,2.8-.8h7.5c2.2,0,3.9.2,5.1.5s2.2.9,3.1,1.6,1.5,1.7,2,2.8.7,2.4.7,3.7c0,3-.9,5.2-2.7,6.7-1.8,1.5-4.5,2.3-8.1,2.3h0ZM436.4,5h-4v8.9h4c1.4,0,2.5-.1,3.5-.4.9-.3,1.6-.8,2.1-1.4s.7-1.5.7-2.6-.4-2.3-1.1-3.1c-.8-.9-2.6-1.3-5.2-1.3h0Z"/>
    <path class="st0" d="M473.8,26.3l-1.4-3.6h-11.8l-1.4,3.7c-.5,1.5-1,2.4-1.4,2.9s-1,.8-1.9.8-1.4-.3-2-.8-.9-1.2-.9-1.8,0-.8.2-1.2.3-1,.7-1.8l7.4-18.9c.2-.5.5-1.2.8-2,.3-.8.6-1.4,1-1.9.3-.5.8-.9,1.3-1.2.5-.3,1.2-.5,2-.5s1.5.2,2,.5c.5.3,1,.7,1.3,1.2.3.5.6,1,.9,1.6.2.6.5,1.3.9,2.2l7.6,18.7c.6,1.4.9,2.5.9,3.1s-.3,1.3-.8,1.9c-.6.6-1.2.8-2,.8s-.9,0-1.2-.2-.6-.4-.8-.7c-.2-.3-.5-.7-.7-1.3-.3-.6-.5-1.1-.7-1.6h0ZM462.1,18.3h8.7l-4.4-12-4.3,12h0Z"/>
    <path class="st0" d="M511.5,20.9c0,1.8-.5,3.3-1.4,4.7-.9,1.4-2.2,2.5-4,3.3s-3.8,1.2-6.2,1.2-5.2-.5-7.1-1.6c-1.3-.8-2.4-1.8-3.2-3.1-.8-1.3-1.2-2.6-1.2-3.8s.2-1.3.7-1.8,1.1-.8,1.9-.8,1.1.2,1.6.6c.4.4.8,1,1.1,1.8.4.9.8,1.7,1.2,2.3.4.6,1,1.1,1.8,1.5s1.8.6,3.1.6,3.2-.4,4.2-1.2c1.1-.8,1.6-1.8,1.6-3s-.3-1.7-.9-2.3-1.3-1.1-2.3-1.4c-.9-.3-2.2-.7-3.7-1-2.1-.5-3.8-1.1-5.2-1.7-1.4-.7-2.5-1.5-3.3-2.7-.8-1.1-1.2-2.5-1.2-4.2s.4-3,1.3-4.3,2.1-2.2,3.8-2.9,3.6-1,5.8-1,3.3.2,4.6.7c1.3.4,2.4,1,3.2,1.8.9.7,1.5,1.5,1.9,2.3s.6,1.6.6,2.4-.2,1.3-.7,1.9-1.1.8-1.9.8-1.2-.2-1.5-.5c-.4-.3-.7-.9-1.1-1.7-.5-1.1-1.2-2-1.9-2.6-.7-.6-1.9-.9-3.6-.9s-2.7.3-3.7,1c-.9.7-1.4,1.5-1.4,2.4s.2,1.1.5,1.5.8.8,1.3,1.1,1.1.5,1.7.7,1.5.4,2.8.8c1.6.4,3.1.8,4.4,1.3s2.5,1,3.4,1.7,1.7,1.5,2.2,2.5.8,2.2.8,3.7h0Z"/>
    <path class="st0" d="M540.5,5.4h-6.4v21.1c0,1.2-.3,2.1-.8,2.7s-1.2.9-2.1.9-1.6-.3-2.1-.9-.8-1.5-.8-2.7V5.4h-6.4c-1,0-1.7-.2-2.2-.7s-.7-1-.7-1.8.3-1.3.8-1.8,1.2-.7,2.2-.7h18.7c1,0,1.8.2,2.3.7.5.4.7,1,.7,1.8s-.3,1.3-.8,1.8-1.3.7-2.3.7h0Z"/>
    <path class="st0" d="M552.3,26.5V3.7c0-1.2.3-2.1.8-2.7s1.2-.9,2.1-.9,1.6.3,2.1.9c.5.6.8,1.5.8,2.7v22.9c0,1.2-.3,2.1-.8,2.7s-1.3.9-2.1.9-1.5-.3-2.1-.9c-.5-.6-.8-1.5-.8-2.7h0Z"/>
    <path class="st0" d="M575.7,3.7v21.1h11.9c1,0,1.7.2,2.2.7s.8,1,.8,1.7-.3,1.3-.8,1.7c-.5.4-1.2.7-2.2.7h-14.2c-1.3,0-2.2-.3-2.8-.9s-.8-1.5-.8-2.8V3.7c0-1.2.3-2.1.8-2.7.5-.6,1.2-.9,2.1-.9s1.6.3,2.1.9c.5.6.8,1.5.8,2.7h0Z"/>
    <path class="st0" d="M605.3,3.7v21.1h11.9c1,0,1.7.2,2.2.7s.8,1,.8,1.7-.3,1.3-.8,1.7c-.5.4-1.2.7-2.2.7h-14.2c-1.3,0-2.2-.3-2.8-.9s-.8-1.5-.8-2.8V3.7c0-1.2.3-2.1.8-2.7.5-.6,1.2-.9,2.1-.9s1.6.3,2.1.9c.5.6.8,1.5.8,2.7h0Z"/>
    <path class="st0" d="M648.2,5.1h-13.2v7.1h12.2c.9,0,1.6.2,2,.6s.7.9.7,1.6-.2,1.2-.7,1.6c-.4.4-1.1.6-2,.6h-12.2v8.3h13.7c.9,0,1.6.2,2.1.6s.7,1,.7,1.7-.2,1.2-.7,1.7-1.2.6-2.1.6h-16c-1.3,0-2.2-.3-2.8-.9s-.8-1.5-.8-2.8V4.2c0-.8,0-1.5.4-2.1.3-.5.6-.9,1.2-1.2.5-.2,1.2-.4,2-.4h15.5c.9,0,1.6.2,2.1.6.5.4.7,1,.7,1.6s-.2,1.2-.7,1.7c-.5.4-1.2.6-2.1.6h0Z"/>
  </g>
</svg>